<?xml version="1.0" standalone="no"?><!DOCTYPE svg PUBLIC "-//W3C//DTD SVG 1.1//EN" "http://www.w3.org/Graphics/SVG/1.1/DTD/svg11.dtd"><svg t="1618304014266" class="icon" viewBox="0 0 1024 1024" version="1.1" xmlns="http://www.w3.org/2000/svg" p-id="1214" width="128" height="128" xmlns:xlink="http://www.w3.org/1999/xlink"><defs><style type="text/css"></style></defs><path d="M231.936 107.008c-51.712 17.408-94.208 56.32-118.784 108.032-11.776 24.576-13.312 34.816-13.312 79.36 0 47.104 1.536 54.272 16.384 85.504 17.92 38.4 51.2 74.752 82.944 90.624 39.424 20.48 74.752 26.112 161.792 26.112 91.648 0 104.96-4.096 125.952-36.864 9.728-15.872 10.24-23.552 8.192-111.616-2.048-105.984-7.68-130.56-41.984-175.616-48.128-62.976-145.408-91.648-221.184-65.536z m135.68 46.08c29.696 14.848 57.856 44.544 73.216 75.264 11.264 23.04 12.288 32.256 13.824 116.224 2.56 121.344 11.264 112.64-109.056 110.08-85.504-1.536-94.208-2.56-117.248-13.824-56.32-27.648-85.504-72.704-89.088-136.704-2.048-36.864-0.512-45.568 10.24-69.632 17.92-38.4 40.448-62.464 77.312-80.896 29.696-15.36 34.816-15.872 75.264-14.336 31.744 1.536 49.152 5.12 65.536 13.824zM673.28 103.936c-75.264 25.088-124.928 78.336-140.288 151.04-3.072 14.848-5.632 63.488-5.632 107.52 0 90.112 4.096 103.936 36.864 123.904 14.848 9.216 26.112 10.24 98.816 10.24 87.04 0 122.368-5.632 161.792-26.112 31.744-15.872 65.024-52.224 82.944-90.624 14.848-31.232 16.384-38.4 16.384-85.504 0-46.08-1.536-54.272-14.848-81.92-19.456-39.424-61.44-81.408-98.816-98.304-35.328-16.384-103.424-21.504-137.216-10.24z m124.416 49.664c36.352 18.432 58.88 42.496 76.8 80.896 10.752 24.064 12.288 32.768 10.24 69.632-3.584 64-32.768 109.056-89.088 136.704-23.04 11.264-32.256 12.288-116.224 13.824-121.344 2.56-112.64 11.264-110.08-109.056 1.536-85.504 2.56-94.208 14.336-117.76 27.648-56.832 80.384-89.088 146.432-89.088 30.72-0.512 40.96 2.048 67.584 14.848zM248.32 534.528c-59.392 14.848-105.472 52.736-132.096 109.568-14.848 31.232-16.384 38.4-16.384 85.504 0 45.056 1.536 54.784 13.824 80.896 17.408 37.376 59.392 79.36 98.304 98.304 78.848 38.4 187.904 12.288 241.152-57.344 34.304-45.056 39.936-69.632 41.984-175.616 2.048-88.064 1.536-95.744-8.192-111.616-20.992-33.28-33.792-36.864-128.512-36.352-48.64 0-95.232 3.072-110.08 6.656z m199.168 43.52c8.192 8.704 8.704 20.48 7.168 101.376-1.536 83.968-2.56 93.184-13.824 116.224-27.648 56.32-72.704 85.504-136.704 89.088-36.864 2.048-45.568 0.512-69.632-10.24-38.4-17.92-62.464-40.448-80.896-76.8-34.304-69.12-12.288-156.672 50.176-199.68 36.352-25.088 56.32-29.184 150.016-29.184 77.312-0.512 85.504 0.512 93.696 9.216zM564.224 537.6c-32.768 19.968-36.864 33.792-36.864 123.904 0 44.032 2.56 92.672 5.632 107.52 13.312 61.952 52.736 111.104 111.104 138.752 31.744 14.848 38.4 16.384 85.504 16.384 44.544 0 54.784-2.048 80.896-13.824 37.376-17.408 79.36-59.392 98.816-98.816 13.312-27.648 14.848-35.84 14.848-81.92 0-47.104-1.536-54.272-16.384-85.504-17.92-38.4-51.2-74.752-82.944-90.624-39.424-20.48-74.752-26.112-161.792-26.112-72.704 0-83.968 1.024-98.816 10.24z m231.424 45.568c56.32 27.648 85.504 72.704 89.088 136.704 2.048 36.864 0.512 45.568-10.24 69.632-17.92 38.4-40.448 62.464-76.8 80.896-78.336 38.912-175.104 5.12-214.016-74.24-11.776-23.552-12.8-32.256-14.336-116.736-2.56-121.344-11.264-112.64 109.056-110.08 85.504 1.536 94.208 2.56 117.248 13.824z" p-id="1215"></path></svg>
