<?xml version="1.0" standalone="no"?><!DOCTYPE svg PUBLIC "-//W3C//DTD SVG 1.1//EN" "http://www.w3.org/Graphics/SVG/1.1/DTD/svg11.dtd"><svg t="1616989707565" class="icon" viewBox="0 0 1024 1024" version="1.1" xmlns="http://www.w3.org/2000/svg" p-id="3088" xmlns:xlink="http://www.w3.org/1999/xlink" width="128" height="128"><defs><style type="text/css"></style></defs><path d="M614.838857 333.824a205.970286 205.970286 0 0 1 75.337143 281.014857 205.970286 205.970286 0 0 1-281.014857 75.337143 205.970286 205.970286 0 0 1-75.337143-281.014857 205.970286 205.970286 0 0 1 281.014857-75.337143z m-41.106286 71.314286a123.611429 123.611429 0 0 0-168.594285 45.129143 123.611429 123.611429 0 0 0 45.129143 168.594285 123.611429 123.611429 0 0 0 168.594285-45.129143 123.611429 123.611429 0 0 0-45.129143-168.594285z m299.446858 315.392c-17.408 30.134857-16.457143 67.072 2.486857 96.548571a46.372571 46.372571 0 0 1-6.436572 58.002286 511.341714 511.341714 0 0 1-221.330285 127.561143 46.372571 46.372571 0 0 1-53.540572-23.405715 92.379429 92.379429 0 0 0-164.864 0.438858 46.372571 46.372571 0 0 1-53.613714 23.552 508.489143 508.489143 0 0 1-221.257143-127.707429 46.299429 46.299429 0 0 1-6.363429-58.221714A92.452571 92.452571 0 1 0 66.194286 674.377143a46.299429 46.299429 0 0 1-47.030857-34.742857 511.488 511.488 0 0 1-0.219429-255.414857 46.372571 46.372571 0 0 1 47.104-34.669715 92.306286 92.306286 0 0 0 82.358857-142.628571 46.372571 46.372571 0 0 1 6.436572-58.075429A511.414857 511.414857 0 0 1 376.100571 21.211429a46.299429 46.299429 0 0 1 53.613715 23.405714c16.091429 31.012571 47.542857 50.249143 82.285714 50.176 34.962286 0 66.56-19.382857 82.505143-50.614857a46.372571 46.372571 0 0 1 53.613714-23.552c82.651429 22.820571 160.182857 67.584 221.330286 127.707428 15.652571 15.433143 18.285714 39.789714 6.363428 58.221715-19.017143 29.476571-20.041143 66.56-2.633142 96.768 17.408 30.134857 49.810286 47.835429 84.699428 46.226285 21.942857-1.097143 41.545143 13.458286 47.030857 34.669715a511.049143 511.049143 0 0 1 0.146286 255.414857 46.299429 46.299429 0 0 1-47.030857 34.669714 92.306286 92.306286 0 0 0-84.845714 46.08zM650.971429 915.529143a429.641143 429.641143 0 0 0 141.165714-81.188572 174.445714 174.445714 0 0 1 9.801143-154.989714 174.445714 174.445714 0 0 1 129.316571-86.016 429.348571 429.348571 0 0 0-0.219428-162.816 174.372571 174.372571 0 0 1-129.097143-85.942857 174.445714 174.445714 0 0 1-9.654857-155.428571 433.005714 433.005714 0 0 0-140.873143-81.334858A174.372571 174.372571 0 0 1 512 177.152a174.372571 174.372571 0 0 1-138.971429-68.754286 429.787429 429.787429 0 0 0-141.165714 81.188572 174.445714 174.445714 0 0 1-9.728 155.062857 174.445714 174.445714 0 0 1-129.316571 85.942857c-10.313143 53.394286-10.24 108.836571 0.219428 162.816a174.445714 174.445714 0 0 1 129.024 85.942857c27.794286 47.981714 30.793143 105.398857 9.654857 155.428572a428.251429 428.251429 0 0 0 140.873143 81.334857A174.372571 174.372571 0 0 1 512 846.774857c55.222857 0 106.276571 25.819429 138.971429 68.754286z" p-id="3089"></path></svg>